<svg xmlns="http://www.w3.org/2000/svg" width="1281.016" height="502.117" viewBox="0 0 1281.016 502.117">
  <g id="charts" transform="translate(0.276 1.672)">
    <path id="Line-Pump-1" d="M0,390.222,173.333,440l192-63.111,182.222,56,183.111-46.222L913.778,260.444,1096,202.667,1280,0" transform="translate(0 -1)" fill="none" stroke="#17314c" stroke-width="2" stroke-dasharray="10 8" fill-rule="evenodd"/>
    <path id="Line-Pump-1-2" data-name="Line-Pump-1" d="M0,463.556l173.333,25.778,192-12.444,182.222,29.333,183.111-50.667,183.111-86.222L1096,382.667,1280,340V538.222H0Z" transform="translate(0 -37.778)" fill="#1b2d3e" fill-rule="evenodd"/>
    <path id="Line-Pump-1-3" data-name="Line-Pump-1" d="M0,463.556l173.333,25.778,192-12.444,182.222,29.333,183.111-50.667,183.111-86.222L1096,382.667,1280,340" transform="translate(0 -37.777)" fill="none" stroke="#17314c" stroke-width="2" fill-rule="evenodd"/>
    <g id="Эллипс_102" data-name="Эллипс 102" transform="translate(168 433)" fill="#17314c" stroke="#fac620" stroke-width="2">
      <circle cx="5" cy="5" r="5" stroke="none"/>
      <circle cx="5" cy="5" r="4" fill="none"/>
    </g>
    <g id="Эллипс_103" data-name="Эллипс 103" transform="translate(360 371)" fill="#17314c" stroke="#fac620" stroke-width="2">
      <circle cx="5" cy="5" r="5" stroke="none"/>
      <circle cx="5" cy="5" r="4" fill="none"/>
    </g>
    <g id="Эллипс_104" data-name="Эллипс 104" transform="translate(543 426)" fill="#17314c" stroke="#fac620" stroke-width="2">
      <circle cx="5" cy="5" r="5" stroke="none"/>
      <circle cx="5" cy="5" r="4" fill="none"/>
    </g>
    <g id="Эллипс_105" data-name="Эллипс 105" transform="translate(725 381)" fill="#17314c" stroke="#fac620" stroke-width="2">
      <circle cx="5" cy="5" r="5" stroke="none"/>
      <circle cx="5" cy="5" r="4" fill="none"/>
    </g>
    <g id="Эллипс_106" data-name="Эллипс 106" transform="translate(908 255)" fill="#17314c" stroke="#fac620" stroke-width="2">
      <circle cx="5" cy="5" r="5" stroke="none"/>
      <circle cx="5" cy="5" r="4" fill="none"/>
    </g>
    <g id="Эллипс_107" data-name="Эллипс 107" transform="translate(1091 197)" fill="#17314c" stroke="#fac620" stroke-width="2">
      <circle cx="5" cy="5" r="5" stroke="none"/>
      <circle cx="5" cy="5" r="4" fill="none"/>
    </g>
    <g id="Эллипс_108" data-name="Эллипс 108" transform="translate(168 447)" fill="#17314c" stroke="#fac620" stroke-width="2">
      <circle cx="5" cy="5" r="5" stroke="none"/>
      <circle cx="5" cy="5" r="4" fill="none"/>
    </g>
    <g id="Эллипс_109" data-name="Эллипс 109" transform="translate(360 434)" fill="#17314c" stroke="#fac620" stroke-width="2">
      <circle cx="5" cy="5" r="5" stroke="none"/>
      <circle cx="5" cy="5" r="4" fill="none"/>
    </g>
    <g id="Эллипс_110" data-name="Эллипс 110" transform="translate(543 464)" fill="#17314c" stroke="#fac620" stroke-width="2">
      <circle cx="5" cy="5" r="5" stroke="none"/>
      <circle cx="5" cy="5" r="4" fill="none"/>
    </g>
    <g id="Эллипс_111" data-name="Эллипс 111" transform="translate(725 413)" fill="#17314c" stroke="#fac620" stroke-width="2">
      <circle cx="5" cy="5" r="5" stroke="none"/>
      <circle cx="5" cy="5" r="4" fill="none"/>
    </g>
    <g id="Эллипс_112" data-name="Эллипс 112" transform="translate(908 327)" fill="#17314c" stroke="#fac620" stroke-width="2">
      <circle cx="5" cy="5" r="5" stroke="none"/>
      <circle cx="5" cy="5" r="4" fill="none"/>
    </g>
    <g id="Эллипс_113" data-name="Эллипс 113" transform="translate(1091 340)" fill="#17314c" stroke="#fac620" stroke-width="2">
      <circle cx="5" cy="5" r="5" stroke="none"/>
      <circle cx="5" cy="5" r="4" fill="none"/>
    </g>
  </g>
</svg>
