<svg id="Logo" xmlns="http://www.w3.org/2000/svg" width="201.835" height="25" viewBox="0 0 201.835 25">
  <path id="Контур_500" data-name="Контур 500" d="M-16.5-35.5h6.3l2.183,7.711L-5.793-35.5H.51L-3.61-23.563l1.8,5.211L3.574-35.5h7.465L1.25-10.5h-5.7l-3.556-8.944L-11.532-10.5h-5.7l-9.789-25h7.43l5.423,17.148,1.725-5.211Z" transform="translate(27.025 35.5)" fill="orange"/>
  <path id="Контур" d="M15.892-14.426,12.625-4.567H10.681l-2.437-7.3-2.479,7.3H3.808L.54-14.426h1.9L4.892-6.933l2.549-7.493h1.69l2.493,7.535,2.521-7.535Zm5.8,2.254a3.143,3.143,0,0,1,2.282.831,3.278,3.278,0,0,1,.859,2.465v4.31H23.075V-8.651a2.112,2.112,0,0,0-.465-1.486,1.718,1.718,0,0,0-1.324-.5,2.032,2.032,0,0,0-1.535.585,2.33,2.33,0,0,0-.563,1.683v3.8H17.427V-15.017h1.761v3.8a2.864,2.864,0,0,1,1.077-.711A3.954,3.954,0,0,1,21.695-12.172ZM34.216-8.285q0,.183-.028.521h-5.9a2.046,2.046,0,0,0,.81,1.317,2.655,2.655,0,0,0,1.627.486,2.741,2.741,0,0,0,2.042-.817l.944,1.085a3.18,3.18,0,0,1-1.282.915,4.668,4.668,0,0,1-1.746.31A4.648,4.648,0,0,1,28.5-4.961,3.55,3.55,0,0,1,27.04-6.334a3.878,3.878,0,0,1-.514-1.993,3.935,3.935,0,0,1,.5-1.979,3.547,3.547,0,0,1,1.387-1.373,4.048,4.048,0,0,1,2-.493,3.946,3.946,0,0,1,1.965.486A3.441,3.441,0,0,1,33.73-10.32,4.143,4.143,0,0,1,34.216-8.285Zm-3.8-2.479a2.124,2.124,0,0,0-1.43.5,2.1,2.1,0,0,0-.711,1.331H32.54a2.076,2.076,0,0,0-.69-1.324A2.1,2.1,0,0,0,30.413-10.764Zm7.169-.225a2.934,2.934,0,0,1,2.676-1.183V-10.5a2.235,2.235,0,0,0-.408-.042,2.126,2.126,0,0,0-1.606.6,2.387,2.387,0,0,0-.577,1.725v3.648H35.906v-7.521h1.676Zm11.169,2.7q0,.183-.028.521h-5.9a2.045,2.045,0,0,0,.81,1.317,2.655,2.655,0,0,0,1.627.486A2.741,2.741,0,0,0,47.3-6.778l.944,1.085a3.18,3.18,0,0,1-1.282.915,4.668,4.668,0,0,1-1.746.31,4.648,4.648,0,0,1-2.183-.493,3.55,3.55,0,0,1-1.458-1.373,3.878,3.878,0,0,1-.514-1.993,3.935,3.935,0,0,1,.5-1.979,3.547,3.547,0,0,1,1.387-1.373,4.048,4.048,0,0,1,2-.493,3.946,3.946,0,0,1,1.965.486,3.441,3.441,0,0,1,1.352,1.366A4.143,4.143,0,0,1,48.751-8.285Zm-3.8-2.479a2.124,2.124,0,0,0-1.43.5,2.1,2.1,0,0,0-.711,1.331h4.268a2.075,2.075,0,0,0-.69-1.324A2.1,2.1,0,0,0,44.948-10.764Zm9.38-1.324h1.761v7.521H54.329Zm.887-1.239a1.131,1.131,0,0,1-.8-.3.989.989,0,0,1-.324-.754.989.989,0,0,1,.324-.754,1.131,1.131,0,0,1,.8-.3,1.163,1.163,0,0,1,.8.289.931.931,0,0,1,.324.725,1.062,1.062,0,0,1-.317.782A1.1,1.1,0,0,1,55.216-13.327Zm5.507,8.859a6.734,6.734,0,0,1-1.789-.239,4.5,4.5,0,0,1-1.394-.606l.676-1.338a4.347,4.347,0,0,0,1.218.542,5.062,5.062,0,0,0,1.4.2q1.577,0,1.577-.831a.555.555,0,0,0-.4-.549,6.931,6.931,0,0,0-1.289-.3A10.456,10.456,0,0,1,59.209-7.9a2.324,2.324,0,0,1-1.014-.641,1.79,1.79,0,0,1-.43-1.275,2,2,0,0,1,.894-1.711,4.07,4.07,0,0,1,2.415-.641A6.971,6.971,0,0,1,62.625-12a4.344,4.344,0,0,1,1.268.472l-.676,1.338a4.17,4.17,0,0,0-2.155-.563,2.388,2.388,0,0,0-1.176.232.693.693,0,0,0-.4.613.612.612,0,0,0,.43.6,6.827,6.827,0,0,0,1.331.331,10.27,10.27,0,0,1,1.479.324,2.315,2.315,0,0,1,.993.62,1.728,1.728,0,0,1,.415,1.239,1.961,1.961,0,0,1-.915,1.69A4.317,4.317,0,0,1,60.723-4.468Zm18.31-7.7a3.06,3.06,0,0,1,2.254.824,3.34,3.34,0,0,1,.831,2.472v4.31H80.357V-8.651a2.2,2.2,0,0,0-.437-1.486,1.575,1.575,0,0,0-1.254-.5,1.836,1.836,0,0,0-1.423.585,2.385,2.385,0,0,0-.535,1.669v3.817H74.948V-8.651a2.2,2.2,0,0,0-.437-1.486,1.575,1.575,0,0,0-1.254-.5,1.842,1.842,0,0,0-1.43.577A2.4,2.4,0,0,0,71.3-8.384v3.817H69.54v-7.521h1.676v.958a2.737,2.737,0,0,1,1.056-.775,3.586,3.586,0,0,1,1.408-.268,3.4,3.4,0,0,1,1.5.317,2.435,2.435,0,0,1,1.035.937,3.134,3.134,0,0,1,1.2-.923A3.888,3.888,0,0,1,79.033-12.172Zm12.239.085L87.751-3.961a3.783,3.783,0,0,1-1.2,1.725,2.867,2.867,0,0,1-1.7.5,3.5,3.5,0,0,1-1.113-.183,2.459,2.459,0,0,1-.9-.507l.7-1.3a1.916,1.916,0,0,0,.6.38,1.831,1.831,0,0,0,.7.141A1.2,1.2,0,0,0,85.6-3.44a2.117,2.117,0,0,0,.556-.8l.127-.3L83-12.088h1.831L87.2-6.525l2.38-5.563Zm14.479-.085a3.06,3.06,0,0,1,2.254.824,3.34,3.34,0,0,1,.831,2.472v4.31h-1.761V-8.651a2.2,2.2,0,0,0-.437-1.486,1.575,1.575,0,0,0-1.254-.5,1.836,1.836,0,0,0-1.423.585,2.385,2.385,0,0,0-.535,1.669v3.817h-1.761V-8.651a2.2,2.2,0,0,0-.437-1.486,1.575,1.575,0,0,0-1.254-.5,1.842,1.842,0,0,0-1.43.577,2.4,2.4,0,0,0-.528,1.676v3.817H96.258v-7.521h1.676v.958a2.737,2.737,0,0,1,1.056-.775,3.586,3.586,0,0,1,1.408-.268,3.4,3.4,0,0,1,1.5.317,2.435,2.435,0,0,1,1.035.937,3.134,3.134,0,0,1,1.2-.923A3.888,3.888,0,0,1,105.751-12.172Zm8.789,7.7a4.267,4.267,0,0,1-2.056-.493,3.594,3.594,0,0,1-1.43-1.373,3.878,3.878,0,0,1-.514-1.993,3.84,3.84,0,0,1,.514-1.986,3.609,3.609,0,0,1,1.43-1.366,4.267,4.267,0,0,1,2.056-.493,4.3,4.3,0,0,1,2.07.493,3.609,3.609,0,0,1,1.43,1.366,3.84,3.84,0,0,1,.514,1.986,3.878,3.878,0,0,1-.514,1.993,3.6,3.6,0,0,1-1.43,1.373A4.3,4.3,0,0,1,114.54-4.468Zm0-1.507a2.151,2.151,0,0,0,1.606-.648,2.333,2.333,0,0,0,.634-1.7,2.333,2.333,0,0,0-.634-1.7,2.151,2.151,0,0,0-1.606-.648,2.128,2.128,0,0,0-1.6.648,2.347,2.347,0,0,0-.627,1.7,2.347,2.347,0,0,0,.627,1.7A2.128,2.128,0,0,0,114.54-5.975Zm9.972-6.2a3.143,3.143,0,0,1,2.282.831,3.278,3.278,0,0,1,.859,2.465v4.31h-1.761V-8.651a2.112,2.112,0,0,0-.465-1.486,1.719,1.719,0,0,0-1.324-.5,2.032,2.032,0,0,0-1.535.585A2.33,2.33,0,0,0,122-8.37v3.8h-1.761v-7.521h1.676v.972a2.752,2.752,0,0,1,1.1-.789A3.953,3.953,0,0,1,124.512-12.172Zm12.521,3.887q0,.183-.028.521h-5.9a2.046,2.046,0,0,0,.81,1.317,2.655,2.655,0,0,0,1.627.486,2.741,2.741,0,0,0,2.042-.817l.944,1.085a3.18,3.18,0,0,1-1.282.915,4.668,4.668,0,0,1-1.746.31,4.648,4.648,0,0,1-2.183-.493,3.55,3.55,0,0,1-1.458-1.373,3.878,3.878,0,0,1-.514-1.993,3.935,3.935,0,0,1,.5-1.979,3.547,3.547,0,0,1,1.387-1.373,4.048,4.048,0,0,1,2-.493,3.946,3.946,0,0,1,1.965.486,3.442,3.442,0,0,1,1.352,1.366A4.143,4.143,0,0,1,137.033-8.285Zm-3.8-2.479a2.124,2.124,0,0,0-1.43.5,2.1,2.1,0,0,0-.711,1.331h4.268a2.076,2.076,0,0,0-.69-1.324A2.1,2.1,0,0,0,133.23-10.764Zm12.394-1.324L142.1-3.961a3.783,3.783,0,0,1-1.2,1.725,2.867,2.867,0,0,1-1.7.5,3.5,3.5,0,0,1-1.113-.183,2.459,2.459,0,0,1-.9-.507l.7-1.3a1.916,1.916,0,0,0,.6.38,1.831,1.831,0,0,0,.7.141,1.2,1.2,0,0,0,.768-.239,2.117,2.117,0,0,0,.556-.8l.127-.3-3.282-7.549h1.831l2.366,5.563,2.38-5.563Zm3.563,4.254a2.169,2.169,0,0,1,.345-1.261,6.419,6.419,0,0,1,1.007-1.092,5.567,5.567,0,0,0,.754-.782,1.229,1.229,0,0,0,.246-.754,1.15,1.15,0,0,0-.479-.958,2.057,2.057,0,0,0-1.282-.366,2.639,2.639,0,0,0-2.3,1.085l-1.366-.887a3.957,3.957,0,0,1,1.563-1.275,5.317,5.317,0,0,1,2.254-.444,4.178,4.178,0,0,1,2.514.683,2.2,2.2,0,0,1,.937,1.88,2.521,2.521,0,0,1-.19,1.014,2.787,2.787,0,0,1-.458.739,9.039,9.039,0,0,1-.7.7,5.431,5.431,0,0,0-.8.845,1.467,1.467,0,0,0-.261.873Zm.9,3.366a1.1,1.1,0,0,1-.81-.317,1.062,1.062,0,0,1-.317-.782,1.039,1.039,0,0,1,.317-.775,1.11,1.11,0,0,1,.81-.31,1.092,1.092,0,0,1,.8.31,1.039,1.039,0,0,1,.317.775,1.062,1.062,0,0,1-.317.782A1.079,1.079,0,0,1,150.089-4.468Z" transform="translate(48.449 22.525)" fill="#fff"/>
</svg>
