<svg xmlns="http://www.w3.org/2000/svg" width="64.265" height="20" viewBox="0 0 64.265 20">
  <path id="Контур_522" data-name="Контур 522" d="M16.48-1.678a7.813,7.813,0,0,1,3.152,1.7L17.8,2.375a10.754,10.754,0,0,0-2.053-1.1A4.822,4.822,0,0,0,14.123,1a9.408,9.408,0,0,0-1.934.238,8.586,8.586,0,0,1-1.881.185A8.6,8.6,0,0,1,3.7-1.175,9.724,9.724,0,0,1,1.275-8.089,9.761,9.761,0,0,1,3.7-15.029a8.6,8.6,0,0,1,6.609-2.6,8.6,8.6,0,0,1,6.609,2.6,9.761,9.761,0,0,1,2.424,6.94A7.637,7.637,0,0,1,16.48-1.678ZM6.467-13.069A7.954,7.954,0,0,0,5.09-8.089,7.958,7.958,0,0,0,6.48-3.1a4.582,4.582,0,0,0,3.828,1.788,4.533,4.533,0,0,0,3.815-1.8A8.024,8.024,0,0,0,15.5-8.089a8.013,8.013,0,0,0-1.377-4.993,4.546,4.546,0,0,0-3.815-1.788A4.561,4.561,0,0,0,6.467-13.069Zm28.4.026V1.05H31.209V-1.334L30.123.468a5.97,5.97,0,0,1-3.391.954A5.386,5.386,0,0,1,23.328.4a4.026,4.026,0,0,1-1.576-2.556,18.866,18.866,0,0,1-.132-2.57v-8.318h3.656v7.55a17.5,17.5,0,0,0,.106,1.934,2.448,2.448,0,0,0,2.728,2.384,2.625,2.625,0,0,0,2.265-1.192,6.085,6.085,0,0,0,.834-3.5v-7.179Zm16.715,0L46.123,1.05H42.043L36.56-13.042h4.053L44.162-1.7l3.47-11.338ZM65.54-6.287a11.734,11.734,0,0,1-.053,1.245H55.474q.318,3.894,3.258,3.894a3.026,3.026,0,0,0,1.974-.636,2.744,2.744,0,0,0,.967-1.748h3.656A5.865,5.865,0,0,1,63.01.15a7.324,7.324,0,0,1-4.358,1.272A6.727,6.727,0,0,1,53.7-.473a7.375,7.375,0,0,1-1.907-5.47,7.522,7.522,0,0,1,1.974-5.377,6.789,6.789,0,0,1,5.179-2.093,6.044,6.044,0,0,1,4.848,2.04A7.541,7.541,0,0,1,65.54-6.287Zm-6.755-4.556q-2.728,0-3.205,3.417h6.2Q61.407-10.844,58.785-10.844Z" transform="translate(-1.275 17.625)" fill="#fff"/>
</svg>
