<svg xmlns="http://www.w3.org/2000/svg" width="105.875" height="20" viewBox="0 0 105.875 20">
  <path id="logo" d="M13.165-6.5a4.19,4.19,0,0,1,3.471,4.433,4.844,4.844,0,0,1-1.522,3.765,6.458,6.458,0,0,1-3.632,1.656,24.054,24.054,0,0,1-2.617.107h-7V-14.968H8.893a21.627,21.627,0,0,1,2.377.107,5.643,5.643,0,0,1,3.458,1.522,4.264,4.264,0,0,1,1.242,3.124A3.7,3.7,0,0,1,13.165-6.5Zm-7.1-5.207v4.166h2.51A8.715,8.715,0,0,0,9.8-7.625,1.881,1.881,0,0,0,11.59-9.655a1.845,1.845,0,0,0-1.816-1.976,9.146,9.146,0,0,0-1.282-.08ZM10.2.145A2.138,2.138,0,0,0,11.67-.522a2.222,2.222,0,0,0,.587-1.6,2.192,2.192,0,0,0-.587-1.642,2.424,2.424,0,0,0-1.549-.654,11.258,11.258,0,0,0-1.282-.053H6.062V.172H9Q9.854.172,10.2.145ZM27.317,3.456l-.294-2.083L26.383,2.9a6.428,6.428,0,0,1-3.525.935,4.893,4.893,0,0,1-3.231-1.108A3.758,3.758,0,0,1,18.292-.336a4.067,4.067,0,0,1,2.016-3.632,10.748,10.748,0,0,1,5.754-1.282h.908v-.24a11.51,11.51,0,0,0-.053-1.228,1.583,1.583,0,0,0-.561-1.108,2.089,2.089,0,0,0-1.415-.441q-1.976,0-2.136,2.216H18.8a4.593,4.593,0,0,1,1.829-3.738A7.135,7.135,0,0,1,25.1-11.15q5.581,0,5.955,4.379.08,1.015.08,2.3V-.149a27.109,27.109,0,0,0,.267,3.6Zm-2.8-2.51A2.389,2.389,0,0,0,26.249.239a2.624,2.624,0,0,0,.721-1.963V-2.765a6.724,6.724,0,0,0-3.191.36A1.774,1.774,0,0,0,22.591-.683a1.467,1.467,0,0,0,.521,1.2A2.143,2.143,0,0,0,24.514.946ZM48.038-7.225a19.549,19.549,0,0,1,.134,2.644V3.456H43.979v-7.4q0-1.255-.053-1.976a2.271,2.271,0,0,0-2.537-2.35A2.381,2.381,0,0,0,39.293-7a7.462,7.462,0,0,0-.788,3.858v6.6H34.313V-10.776h4.192v2.243l1.175-1.709a5.834,5.834,0,0,1,3.311-.908A5.5,5.5,0,0,1,46.5-10.122,4.215,4.215,0,0,1,48.038-7.225Zm8.411,5.234-1.095,1.2V3.456H51.162V-16.17h4.192V-4.528l5.394-6.248h4.967L59.547-4.207,65.8,3.456H60.588ZM75.168-11.15a6.713,6.713,0,0,1,1.068.107v3.391a4.414,4.414,0,0,0-3.618,1Q71.509-5.489,71.51-2.5V3.456H67.317V-10.776H71.51v2.724l1.068-1.976A3.444,3.444,0,0,1,75.168-11.15Zm9.319,0a7.333,7.333,0,0,1,5.487,2.056A7.409,7.409,0,0,1,91.99-3.673a7.456,7.456,0,0,1-2.016,5.434A7.307,7.307,0,0,1,84.487,3.83a7.324,7.324,0,0,1-5.5-2.056,7.473,7.473,0,0,1-2-5.447,7.437,7.437,0,0,1,2-5.421A7.324,7.324,0,0,1,84.487-11.15Zm0,12.1a2.694,2.694,0,0,0,2.336-1.2,5.911,5.911,0,0,0,.841-3.418,5.846,5.846,0,0,0-.841-3.4,2.7,2.7,0,0,0-2.336-1.188,2.729,2.729,0,0,0-2.363,1.188,5.846,5.846,0,0,0-.841,3.4,5.911,5.911,0,0,0,.841,3.418A2.719,2.719,0,0,0,84.487.946ZM98.319-16.17V-1.4q0,.935.027,1.308a.76.76,0,0,0,.387.668,3.035,3.035,0,0,0,1.242.134V3.563q-1.335.134-2.51.134-3.124,0-3.284-2.644-.053-.694-.053-2.377V-16.17Zm7.77,0V-1.4q0,.935.027,1.308a.76.76,0,0,0,.387.668,3.035,3.035,0,0,0,1.242.134V3.563q-1.335.134-2.51.134-3.124,0-3.284-2.644Q101.9.359,101.9-1.324V-16.17Z" transform="translate(-1.87 16.17)" fill="#fff"/>
</svg>
