<svg id="Capa_1" enable-background="new 0 0 512 512" height="512" viewBox="0 0 512 512" width="512" xmlns="http://www.w3.org/2000/svg"><g><path d="m470.013 396.448c-36.303 55.33-90.382 91.979-149.765 107.359-4.176 1.081-8.622.121-12.011-2.548-9.704-7.644-20.032-13.339-30.868-16.78-27.364-8.691-54.195-1.818-77.863 17.159-2.522 2.022-5.837 2.75-8.961 1.923-25.964-6.87-51.281-17.976-74.971-33.521-118.196-77.56-151.143-236.257-73.587-354.459 77.555-118.203 236.243-151.152 354.439-73.592s151.143 236.256 73.587 354.459z" fill="#1ed688"/><path d="m214.755 408.89c-21.39 37.128-30.982 69.579-36.73 91.012-7.628-2.444-15.185-5.263-22.646-8.462-2.786-27.191.212-65.726 19.109-99.972 34.626-62.749 109.893-88.011 115.969-79.948 4.929 6.54-37.99 31.913-75.702 97.37zm-43.757-50.935c37.712-65.457 80.631-90.83 75.703-97.37-6.076-8.063-81.343 17.198-115.968 79.948-19.92 36.099-22.174 76.963-18.609 104.283-6.488-13.823-11.612-28.528-15.167-43.983 5.45-17.364 12.773-59.081 41.751-109.38 37.712-65.457 80.631-90.83 75.703-97.369-6.076-8.063-81.342 17.198-115.969 79.948-6.104 11.062-10.549 22.572-13.676 34.003.032-8.255.363-16.956 1.088-26.081 5.987-75.307 33.873-116.639 26.616-120.432-8.947-4.677-66.1 50.431-70.461 121.969-3.193 52.378 22.775 99.454 39.647 117.604.017.098.036.196.057.294 3.561 16.386 8.771 32.136 15.502 47.065-14.597-16.719-36.089-42.689-54.92-80.941-33.367-67.775-30.54-117.556-38.716-117.104-1.089.06-2.304 1.008-3.565 2.731-.867 84.279 39.864 167.229 115.561 216.9 5.857 3.844 11.814 7.416 17.856 10.72-2.049-2.803-4.035-5.659-5.955-8.568 5.862-13.075 11.33-58.361 43.522-114.237z" fill="#169b62"/><path d="m392.506 77.314v29.999c0 2.761-2.238 5-4.999 5s-4.999-2.239-4.999-5v-29.999c0-2.761 2.238-4.999 4.999-4.999 2.76 0 4.999 2.238 4.999 4.999zm47.994 56.997h-14.998c-2.761 0-4.999 2.238-4.999 4.999 0 2.761 2.238 5 4.999 5h14.998c2.761 0 4.999-2.239 4.999-5 .001-2.76-2.237-4.999-4.999-4.999zm-7.857-40.14c-1.952-1.953-5.118-1.953-7.07 0l-21.211 21.212c-1.952 1.953-1.952 5.118 0 7.07 1.952 1.953 5.118 1.953 7.07 0l21.211-21.212c1.953-1.952 1.953-5.117 0-7.07z" fill="#a1ffbc"/><path d="m329.992 115.617c0 33.135-35.813 59.997-79.991 59.997s-79.991-26.861-79.991-59.997c0-33.135 35.813-59.997 79.991-59.997s79.991 26.862 79.991 59.997z" fill="#d5f1fe"/><path d="m329.992 115.617c0 17.039-9.47 32.419-24.678 43.341-1.758.086-3.531.131-5.318.131-44.178 0-66.645-29.668-79.991-59.997-9.467-21.514-18.317-95.383 19.249-99.063 9.72-.952 9.671 26.421 38.52 53.032 6.139 5.662 11.188 9.113 14.661 11.687 22.557 10.61 37.557 29.426 37.557 50.869z" fill="#fff"/><path d="m379.986 185.613c0 33.135-58.196 59.997-129.985 59.997s-129.985-26.861-129.985-59.997c0-33.135 58.196-59.997 129.985-59.997s129.985 26.862 129.985 59.997z" fill="#d5f1fe"/><path d="m379.986 185.613c0 33.135-50.656 59.997-113.143 59.997-17.33 0-33.75-2.066-48.432-5.759-22.1-5.559-37.743-28.245-37.743-54.237 0-25.993 48.278-49.018 89.096-50.932 62.419-2.929 110.222 17.796 110.222 50.931z" fill="#fff"/><path d="m402.695 219.019c-12.861 27.947-41.359 47.209-74.282 46.574-42.711-.823-77.573-35.686-78.397-78.399-.627-32.519 18.152-60.721 45.538-73.804 4.221-2.017 8.891 1.634 8.111 6.247-.853 5.046-1.234 10.253-1.095 15.574 1.105 42.292 35.557 76.734 77.846 77.826 5.707.147 11.284-.303 16.672-1.294 4.132-.76 7.363 3.46 5.607 7.276z" fill="#c83c50"/><path d="m409.983 185.613c0 12.54-2.885 24.405-8.028 34.97-10.564 5.143-22.428 8.028-34.967 8.028-44.178 0-79.991-35.815-79.991-79.995 0-12.539 2.885-24.405 8.028-34.969 10.564-5.143 22.428-8.028 34.967-8.028 44.177-.001 79.991 35.814 79.991 79.994z" fill="#f44545"/><path d="m351.408 147.92-32.561 77.589c-.803 1.914-2.658 3.066-4.612 3.066-.645 0-1.301-.125-1.933-.391-2.546-1.068-3.744-3.999-2.675-6.545l32.561-77.589c1.068-2.546 3.998-3.745 6.545-2.676 2.546 1.07 3.744 4 2.675 6.546zm-43.404 32.888c-10.69 0-19.386-9.743-19.386-21.719s8.697-21.719 19.386-21.719c10.69 0 19.386 9.744 19.386 21.719.001 11.976-8.696 21.719-19.386 21.719zm9.388-21.719c0-6.463-4.211-11.72-9.388-11.72-5.176 0-9.388 5.258-9.388 11.72s4.211 11.719 9.388 11.719 9.388-5.257 9.388-11.719zm53.973 53.049c0 11.976-8.697 21.719-19.386 21.719-10.69 0-19.387-9.744-19.387-21.719 0-11.976 8.697-21.719 19.387-21.719s19.386 9.743 19.386 21.719zm-9.999 0c0-6.463-4.211-11.72-9.388-11.72-5.176 0-9.388 5.258-9.388 11.72s4.211 11.72 9.388 11.72 9.388-5.257 9.388-11.72z" fill="#fff"/><path d="m249.968 325.605c-58.326-.78-146.36-22.644-149.983-59.997-3.926-40.471 91.027-101.409 150.016-79.995 38.547 13.993 47.581 58.013 91.192 60.419 25.115 1.386 49.1-11.725 57.918-.293 5.023 6.512 1.802 16.707.84 19.87-12.115 39.838-89.502 60.805-149.983 59.996z" fill="#d5f1fe"/><path d="m399.951 265.609c-12.115 39.838-89.502 60.805-149.983 59.997-8.366-.112-17.343-.658-26.595-1.62-31.817-3.312-56.036-30.051-56.036-62.042 0 0-2.752-31.778 16.536-47.862 34.038-28.383 94.508-9.875 98.262-6.059 16.84 17.115 30.574 36.438 59.058 38.01 25.115 1.386 49.1-11.725 57.918-.293 5.024 6.511 1.802 16.705.84 19.869z" fill="#fff"/><path d="m395.484 305.606v49.997c0 5.523-4.477 9.999-9.999 9.999h-22.186l-41.622 137.893c-20.959 5.549-42.973 8.505-65.677 8.505s-44.718-2.956-65.677-8.504l-41.622-137.893h-22.186c-5.522 0-9.999-4.477-9.999-9.999v-49.997c0-5.523 4.477-9.999 9.999-9.999h258.971c5.522-.001 9.998 4.476 9.998 9.998z" fill="#ffc14f"/><path d="m256 512c-8.861 0-17.616-.45-26.245-1.329l-33.51-111.02c-1.997-6.616 2.955-13.283 9.865-13.283h150.922l-35.354 117.128c-20.96 5.548-42.974 8.504-65.678 8.504zm129.485-216.393h-190.478c-19.328 0-34.996 15.669-34.996 34.998 0 19.329 15.668 34.998 34.996 34.998h190.478c5.522 0 9.999-4.477 9.999-9.999v-49.997c0-5.523-4.476-10-9.999-10z" fill="#ffcd71"/><path d="m237.385 321.514c0 5.523-4.477 9.999-9.999 9.999s-9.999-4.477-9.999-9.999c0-5.523 4.477-9.999 9.999-9.999 5.522-.001 9.999 4.476 9.999 9.999zm14.53 114.339c-5.522 0-9.999 4.477-9.999 9.999 0 5.523 4.477 9.999 9.999 9.999s9.999-4.477 9.999-9.999c0-5.523-4.476-9.999-9.999-9.999zm34.847 30.804c-5.522 0-9.999 4.477-9.999 9.999 0 5.523 4.477 9.999 9.999 9.999s9.999-4.477 9.999-9.999-4.477-9.999-9.999-9.999zm-96.095-135.144c-5.522 0-9.999 4.477-9.999 9.999 0 5.523 4.477 9.999 9.999 9.999s9.999-4.477 9.999-9.999-4.477-9.999-9.999-9.999zm136.724 0c-5.522 0-9.999 4.477-9.999 9.999 0 5.523 4.477 9.999 9.999 9.999s9.999-4.477 9.999-9.999-4.477-9.999-9.999-9.999z" fill="#ffb52d"/></g></svg>