<svg xmlns="http://www.w3.org/2000/svg" width="16" height="12.444" viewBox="0 0 16 12.444"><g transform="translate(-13.65 -11.25)"><path d="M0,13.361a1.334,1.334,0,0,0,1.333,1.333H14.667A1.334,1.334,0,0,0,16,13.361V8.472H0Zm5.333-1.889a.334.334,0,0,1,.333-.333H9.444a.334.334,0,0,1,.333.333v1.111a.334.334,0,0,1-.333.333H5.667a.334.334,0,0,1-.333-.333Zm-3.556,0a.334.334,0,0,1,.333-.333h2a.334.334,0,0,1,.333.333v1.111a.334.334,0,0,1-.333.333h-2a.334.334,0,0,1-.333-.333ZM16,3.583V4.917H0V3.583A1.334,1.334,0,0,1,1.333,2.25H14.667A1.334,1.334,0,0,1,16,3.583Z" transform="translate(13.65 9)" fill="orange"/></g></svg>