<svg xmlns="http://www.w3.org/2000/svg" width="9.053" height="16" viewBox="0 0 9.053 16"><g transform="translate(-17.909 -9.432)"><path d="M15.563,13.449c-2.018-.524-2.667-1.062-2.667-1.907,0-.969.893-1.649,2.4-1.649,1.582,0,2.169.756,2.222,1.867h1.964A3.539,3.539,0,0,0,16.63,8.373V6.427H13.963v1.92c-1.724.378-3.111,1.489-3.111,3.209,0,2.053,1.7,3.076,4.178,3.671,2.227.533,2.667,1.311,2.667,2.147,0,.609-.431,1.587-2.4,1.587-1.831,0-2.556-.822-2.649-1.867h-1.96a3.732,3.732,0,0,0,3.276,3.4v1.929H16.63V20.516c1.729-.333,3.111-1.333,3.111-3.16,0-2.516-2.16-3.378-4.178-3.907Z" transform="translate(7.222 3.005)" fill="orange"/></g></svg>